<svg xmlns="http://www.w3.org/2000/svg" width="13" height="13">
  <path fill="#2980B9" fill-rule="evenodd" d="M7.47 10.95c-.042-1.503-.4-2.256-1.906-3.19-1.16-.705-2.82-1.29-3.466-3.56.1.885.382 1.812 1.29 2.51C.168 5.905.576 1.263 3.83.72c-1.165 1.174-1.553 3.533.494 4.875C7.72 7.39 8.35 8.98 7.472 10.95zM1.584 7.766C-.04 6.59.37 5.586.744 4.006c.12 1.404.44 2.26 2.076 2.877 3.295 1.283 4.338 2.16 4.31 4.348-.61-1.735-1.91-2.903-3.502-3.11 1.36.55 2.342 1.62 2.29 3.637-.468-1.245-2.296-1.117-3.753-1.673C1.07 9.66.585 8.637.377 7.474c.396.197.797.314 1.206.29zm6.4.353c-.58-1.32-1.542-2.108-2.72-2.6.846-1.098-.28-2.123.553-3.26-.596.022-.91-.177-1.064-.547 1.182.155 1.777-.626 2.907.055.626.013 1.036.06 1.387.53-1.355-.11-1.92.738-1.554 1.91.53 1.53 2.046 2.98 1.616 5.3-.354 1.656-1.138 2.535-2.396 3.18 1.254-.96 1.936-2.354 1.86-4.05-.16-1.248-.69-2.205-1.31-2.9.32.75.612 1.576.718 2.38zm1.35-1.058l-.97-1.832c.674-.513 1.166-1.17 1.36-2.202.09.79.07 1.632-.083 2.534.875-1.044 1.154-2.464.94-4.197 1.24 2.63.68 5.327-1.04 7.75l.09-1.61c.525-.466.82-.966.91-1.734-.324.52-.76.977-1.204 1.29zm-.002 2.66c.832-.953 1.505-2.025 1.82-3.224l.926-.858c-.492 2.037-1.467 3.2-2.745 4.08z"/>
</svg>
